Coordinates
version=1
nRows=24
nColumns=38
inDegrees=no

Units are S.I. units (second, meters, Newtons, ...)
If the header above contains a line with 'inDegrees', this indicates whether rotational values are in degrees (yes) or radians (no).

endheader
time	pelvis_tilt	pelvis_list	pelvis_rotation	pelvis_tx	pelvis_ty	pelvis_tz	hip_flexion_r	hip_adduction_r	hip_rotation_r	knee_angle_r	ankle_angle_r	subtalar_angle_r	mtp_angle_r	hip_flexion_l	hip_adduction_l	hip_rotation_l	knee_angle_l	ankle_angle_l	subtalar_angle_l	mtp_angle_l	lumbar_extension	lumbar_bending	lumbar_rotation	arm_flex_r	arm_add_r	arm_rot_r	elbow_flex_r	pro_sup_r	wrist_flex_r	wrist_dev_r	arm_flex_l	arm_add_l	arm_rot_l	elbow_flex_l	pro_sup_l	wrist_flex_l	wrist_dev_l
15	0.317886	1.4305	1.34282	0.683386	0.191588	1.05243	0.232864	-0.014645	0.0127776	0.234272	-0.287532	0	0	0.214381	-0.150653	-0.18096	0.349578	-0.289017	0	0	-0.30448	0.0722715	-0.0394871	0.518515	-0.454461	1.5708	0.609221	0.166469	0	0	0.128327	-0.299092	0.404432	0.529363	0.905437	0	0
15.01	0.319072	1.43161	1.34279	0.683245	0.191906	1.05257	0.231047	-0.0149695	0.0127698	0.234201	-0.2871	0	0	0.21271	-0.150201	-0.180619	0.348995	-0.289007	0	0	-0.303604	0.0727613	-0.0405693	0.518227	-0.454696	1.5708	0.609713	0.164989	0	0	0.127988	-0.298709	0.403958	0.528404	0.906186	0	0
15.02	0.31918	1.4324	1.34383	0.683094	0.192228	1.05266	0.229407	-0.0153886	0.0127353	0.233671	-0.286705	0	0	0.211498	-0.149775	-0.180361	0.348533	-0.289075	0	0	-0.302435	0.0731297	-0.0415876	0.517763	-0.454894	1.5708	0.609981	0.164411	0	0	0.127688	-0.298258	0.403793	0.52726	0.907483	0	0
15.03	0.296267	1.5059	1.26635	0.691984	0.18121	1.05981	0.203616	-0.0146432	0.155694	0.291095	-0.276286	0	0	0.112237	-0.141448	-0.29797	0.330209	-0.294593	0	0	-0.391381	0.0336992	0.0406997	0.579882	-0.484712	1.5708	0.654079	0.145914	0	0	0.15538	-0.299629	0.420406	0.548083	0.893096	0	0
15.04	0.320885	1.43468	1.34488	0.682777	0.192889	1.05291	0.224438	-0.0159089	0.013376	0.230839	-0.28421	0	0	0.208714	-0.149182	-0.179187	0.347965	-0.2907	0	0	-0.300708	0.0738377	-0.0427545	0.515989	-0.455759	1.5708	0.610913	0.15419	0	0	0.129257	-0.298598	0.413459	0.524023	0.901945	0	0
15.05	0.321441	1.43447	1.34561	0.682641	0.193179	1.05294	0.22379	-0.0159561	0.012892	0.230241	-0.284884	0	0	0.209444	-0.149278	-0.178421	0.349	-0.290361	0	0	-0.299191	0.0742627	-0.0437654	0.514743	-0.454991	1.5708	0.609681	0.155471	0	0	0.128727	-0.297782	0.411569	0.523179	0.904141	0	0
15.06	0.322753	1.43442	1.34556	0.682481	0.193437	1.053	0.222808	-0.015992	0.0122838	0.229173	-0.285395	0	0	0.210055	-0.14947	-0.177902	0.350124	-0.290246	0	0	-0.298085	0.0747955	-0.0447167	0.513835	-0.454412	1.5708	0.608563	0.156275	0	0	0.128442	-0.296906	0.4099	0.522226	0.906582	0	0
15.07	0.322432	1.43455	1.34717	0.682328	0.193646	1.05304	0.221776	-0.0163628	0.0114136	0.22814	-0.285858	0	0	0.210572	-0.149299	-0.177236	0.351235	-0.290229	0	0	-0.297304	0.0750201	-0.0457494	0.513204	-0.453928	1.5708	0.607665	0.156809	0	0	0.128385	-0.296172	0.408417	0.521192	0.908987	0	0
15.08	0.322451	1.43472	1.34831	0.682181	0.19383	1.05309	0.220719	-0.0167303	0.0102117	0.227014	-0.286377	0	0	0.210961	-0.149097	-0.176491	0.35222	-0.290268	0	0	-0.296953	0.0751635	-0.0465731	0.512765	-0.453558	1.5708	0.606883	0.157196	0	0	0.128529	-0.295483	0.407067	0.520209	0.911296	0	0
15.09	0.323382	1.43497	1.34842	0.682039	0.19398	1.05316	0.219752	-0.0170027	0.00880185	0.226194	-0.286924	0	0	0.211178	-0.148967	-0.175838	0.35303	-0.290321	0	0	-0.297	0.0753994	-0.0471579	0.512555	-0.453396	1.5708	0.60627	0.157656	0	0	0.128961	-0.294718	0.405949	0.519123	0.913488	0	0
15.1	0.32467	1.43518	1.34826	0.681904	0.19407	1.05323	0.219018	-0.0172507	0.00725136	0.225682	-0.287436	0	0	0.211516	-0.148825	-0.174962	0.35382	-0.290392	0	0	-0.297221	0.0756843	-0.0476756	0.512533	-0.453407	1.5708	0.605848	0.158546	0	0	0.129654	-0.293965	0.405125	0.518043	0.915518	0	0
15.11	0.325779	1.43509	1.34813	0.681799	0.194115	1.05325	0.219246	-0.0174806	0.00518009	0.226309	-0.287822	0	0	0.212301	-0.148752	-0.173911	0.354853	-0.290193	0	0	-0.296844	0.0759556	-0.0471012	0.511724	-0.453983	1.5708	0.605731	0.158795	0	0	0.131899	-0.292804	0.407389	0.514885	0.916444	0	0
15.12	0.326846	1.43493	1.34744	0.681776	0.194104	1.05327	0.220023	-0.0175351	0.00426792	0.227482	-0.287491	0	0	0.213013	-0.14882	-0.173303	0.355682	-0.290106	0	0	-0.297072	0.0759806	-0.0466571	0.511495	-0.45379	1.5708	0.60497	0.157831	0	0	0.133206	-0.292615	0.409409	0.514044	0.915113	0	0
15.13	0.326154	1.43469	1.3482	0.681809	0.194032	1.05323	0.221402	-0.0176049	0.00382296	0.229506	-0.286947	0	0	0.21386	-0.148853	-0.17341	0.356585	-0.289998	0	0	-0.297239	0.0757228	-0.0460577	0.511468	-0.453687	1.5708	0.604331	0.157289	0	0	0.134479	-0.292589	0.411561	0.513435	0.913712	0	0
15.14	0.326144	1.43428	1.3481	0.681854	0.193901	1.05318	0.223202	-0.0173871	0.00389306	0.23193	-0.286385	0	0	0.21496	-0.1492	-0.173909	0.357666	-0.289847	0	0	-0.297443	0.0755852	-0.0452966	0.511768	-0.45373	1.5708	0.60377	0.15705	0	0	0.13572	-0.2926	0.413767	0.513118	0.912276	0	0
15.15	0.326801	1.43377	1.34717	0.681918	0.193719	1.05312	0.225375	-0.0171651	0.00423118	0.234483	-0.285882	0	0	0.216303	-0.149748	-0.174553	0.359021	-0.289584	0	0	-0.297802	0.0755355	-0.0444301	0.512446	-0.453831	1.5708	0.603249	0.156569	0	0	0.136918	-0.29266	0.415883	0.513119	0.91068	0	0
15.16	0.328631	1.43311	1.3449	0.68202	0.193501	1.05304	0.227778	-0.0166404	0.00481937	0.237119	-0.285316	0	0	0.217989	-0.150541	-0.175086	0.360774	-0.289224	0	0	-0.29828	0.0756382	-0.043475	0.513207	-0.453895	1.5708	0.602756	0.15533	0	0	0.137942	-0.292836	0.417796	0.513542	0.908976	0	0
15.17	0.330583	1.43229	1.34248	0.682143	0.193261	1.05294	0.230524	-0.015995	0.00560018	0.240309	-0.284672	0	0	0.219966	-0.151474	-0.175701	0.362763	-0.288883	0	0	-0.298771	0.0757924	-0.0425996	0.51391	-0.453935	1.5708	0.602395	0.153797	0	0	0.138796	-0.293175	0.419607	0.514258	0.90728	0	0
15.18	0.329686	1.43155	1.34273	0.682297	0.192987	1.05279	0.233525	-0.0157546	0.00678717	0.243946	-0.284105	0	0	0.221986	-0.152081	-0.176805	0.364829	-0.288598	0	0	-0.299317	0.075504	-0.0417673	0.514565	-0.45395	1.5708	0.602282	0.152742	0	0	0.139532	-0.293676	0.421268	0.515174	0.90557	0	0
15.19	0.328727	1.43053	1.34298	0.682453	0.192682	1.05264	0.236508	-0.0154614	0.00779702	0.246772	-0.283832	0	0	0.224315	-0.152705	-0.177851	0.366886	-0.288357	0	0	-0.299945	0.0752427	-0.0408947	0.515435	-0.45411	1.5708	0.602319	0.152569	0	0	0.140306	-0.294155	0.42263	0.516156	0.903829	0	0
15.2	0.328648	1.42949	1.3425	0.682596	0.19237	1.05251	0.239314	-0.0150103	0.00873301	0.249305	-0.283743	0	0	0.22664	-0.153397	-0.178526	0.368839	-0.288162	0	0	-0.300696	0.0751612	-0.0401611	0.51649	-0.454446	1.5708	0.602507	0.152764	0	0	0.141122	-0.294594	0.423909	0.517031	0.902184	0	0
15.21	0.329616	1.42818	1.34105	0.68272	0.192033	1.05238	0.241816	-0.0142994	0.00914635	0.250613	-0.283859	0	0	0.229157	-0.154191	-0.178791	0.370551	-0.288056	0	0	-0.301415	0.0752885	-0.0394311	0.517605	-0.454638	1.5708	0.602312	0.152798	0	0	0.142023	-0.294921	0.42509	0.517761	0.900568	0	0
15.22	0.331498	1.42669	1.33886	0.682818	0.19169	1.05225	0.244394	-0.0134048	0.00948225	0.251841	-0.283913	0	0	0.231833	-0.155091	-0.178825	0.372159	-0.288016	0	0	-0.302058	0.0756002	-0.0388513	0.518507	-0.45465	1.5708	0.601937	0.152279	0	0	0.14286	-0.295259	0.426438	0.518469	0.899173	0	0
15.23	0.331647	1.42529	1.33852	0.682909	0.191338	1.05209	0.247091	-0.0129799	0.00974888	0.253259	-0.283867	0	0	0.234449	-0.155663	-0.178757	0.37364	-0.288033	0	0	-0.302602	0.075646	-0.0385267	0.519399	-0.454501	1.5708	0.601456	0.151731	0	0	0.143617	-0.295693	0.428025	0.519102	0.897886	0	0
